<svg width="45" height="45" viewBox="0 0 45 45" fill="none" xmlns="http://www.w3.org/2000/svg">
<path fill-rule="evenodd" clip-rule="evenodd" d="M22.5 4.5C12.5589 4.5 4.5 12.5589 4.5 22.5C4.5 32.4411 12.5589 40.5 22.5 40.5C32.4411 40.5 40.5 32.4411 40.5 22.5C40.5 12.5589 32.4411 4.5 22.5 4.5ZM0 22.5C0 10.0736 10.0736 0 22.5 0C34.9264 0 45 10.0736 45 22.5C45 34.9264 34.9264 45 22.5 45C10.0736 45 0 34.9264 0 22.5ZM22.5 9C23.7426 9 24.75 10.0074 24.75 11.25V21.568L30.841 27.659C31.7197 28.5377 31.7197 29.9623 30.841 30.841C29.9623 31.7197 28.5377 31.7197 27.659 30.841L20.909 24.091C20.4871 23.669 20.25 23.0967 20.25 22.5V11.25C20.25 10.0074 21.2574 9 22.5 9Z" fill="black"/>
</svg>
