<svg width="50" height="55" viewBox="0 0 50 55" fill="none" xmlns="http://www.w3.org/2000/svg">
<path d="M14.5833 13.6364V6.81818C14.5833 6.21542 14.8028 5.63734 15.1935 5.21112C15.5842 4.7849 16.1141 4.54546 16.6666 4.54546H33.3333C33.8858 4.54546 34.4157 4.7849 34.8064 5.21112C35.1971 5.63734 35.4166 6.21542 35.4166 6.81818V13.6364H45.8333V18.1818H41.6666V47.7273C41.6666 48.33 41.4471 48.9081 41.0564 49.3343C40.6657 49.7606 40.1358 50 39.5833 50H10.4166C9.86409 50 9.33419 49.7606 8.94349 49.3343C8.55279 48.9081 8.33329 48.33 8.33329 47.7273V18.1818H4.16663V13.6364H14.5833ZM27.9458 31.8182L31.6291 27.8L28.6833 24.5864L25 28.6045L21.3166 24.5864L18.3708 27.8L22.0541 31.8182L18.3708 35.8364L21.3166 39.05L25 35.0318L28.6833 39.05L31.6291 35.8364L27.9458 31.8182ZM18.75 9.09091V13.6364H31.25V9.09091H18.75Z" fill="#7F53FE"/>
</svg>
