<svg width="325" height="17" viewBox="0 0 325 17" fill="none" xmlns="http://www.w3.org/2000/svg">
<rect y="8" width="147.727" height="1" fill="#E0DDE0"/>
<rect x="177.273" y="8" width="147.727" height="1" fill="#E0DDE0"/>
<path d="M158.592 14.112C157.799 14.112 157.085 13.9487 156.45 13.622C155.825 13.286 155.335 12.824 154.98 12.236C154.625 11.648 154.448 10.9807 154.448 10.234C154.448 9.48733 154.625 8.82 154.98 8.232C155.335 7.644 155.825 7.18667 156.45 6.86C157.085 6.524 157.799 6.356 158.592 6.356C159.385 6.356 160.095 6.524 160.72 6.86C161.345 7.18667 161.835 7.644 162.19 8.232C162.545 8.82 162.722 9.48733 162.722 10.234C162.722 10.9807 162.545 11.648 162.19 12.236C161.835 12.824 161.345 13.286 160.72 13.622C160.095 13.9487 159.385 14.112 158.592 14.112ZM158.592 12.32C159.152 12.32 159.609 12.1333 159.964 11.76C160.328 11.3773 160.51 10.8687 160.51 10.234C160.51 9.59933 160.328 9.09533 159.964 8.722C159.609 8.33933 159.152 8.148 158.592 8.148C158.032 8.148 157.57 8.33933 157.206 8.722C156.842 9.09533 156.66 9.59933 156.66 10.234C156.66 10.8687 156.842 11.3773 157.206 11.76C157.57 12.1333 158.032 12.32 158.592 12.32ZM166.268 7.462C166.529 7.098 166.879 6.82267 167.318 6.636C167.766 6.44933 168.279 6.356 168.858 6.356V8.372C168.615 8.35333 168.452 8.344 168.368 8.344C167.742 8.344 167.252 8.52133 166.898 8.876C166.543 9.22133 166.366 9.744 166.366 10.444V14H164.182V6.468H166.268V7.462Z" fill="black"/>
</svg>
