<svg width="37" height="41" viewBox="0 0 37 41" fill="none" xmlns="http://www.w3.org/2000/svg">
<path fill-rule="evenodd" clip-rule="evenodd" d="M25.5492 0.804961C26.2814 -0.0134172 27.4686 -0.0134172 28.2008 0.804961L35.7008 9.18731C36.4331 10.0057 36.4331 11.3325 35.7008 12.1509L11.3258 39.3936C10.9742 39.7866 10.4973 40.0073 10 40.0073H2.5C1.46447 40.0073 0.625 39.0691 0.625 37.9118V29.5294C0.625 28.9736 0.822544 28.4406 1.17417 28.0476L19.9238 7.09216L25.5492 0.804961ZM21.25 11.5371L4.375 30.3974V35.8162H9.22335L26.0983 16.9559L21.25 11.5371ZM28.75 13.9923L23.9016 8.57353L26.875 5.25037L31.7233 10.6691L28.75 13.9923Z" fill="black"/>
</svg>
