<svg width="41" height="44" viewBox="0 0 41 44" fill="none" xmlns="http://www.w3.org/2000/svg">
<path d="M30.0882 7.29358C31.7089 8.03397 33.0957 9.24993 34.081 10.7991C35.0983 12.3986 35.6415 14.2808 35.6408 16.2068V16.2069C35.6416 18.6324 34.7801 20.9694 33.2276 22.7589C31.7125 24.5053 29.6464 25.607 27.4192 25.8629V22.5476C28.6667 22.3313 29.8199 21.714 30.7199 20.7802C31.6504 19.8148 32.2614 18.562 32.4643 17.2062C32.6673 15.8504 32.4519 14.4616 31.8492 13.2433C31.2649 12.0624 30.3461 11.1013 29.2197 10.4927L30.0882 7.29358ZM3.55944 40.2638C3.59667 36.5509 5.01474 33 7.51089 30.3738C10.0404 27.7125 13.4695 26.2189 17.0433 26.2189C20.6171 26.2189 24.0462 27.7125 26.5757 30.3738C29.0718 33 30.4899 36.5509 30.5271 40.2638H27.4182C27.3812 37.4272 26.2941 34.7138 24.3828 32.7029C22.4376 30.6564 19.7977 29.5052 17.0433 29.5052C14.2889 29.5052 11.6489 30.6564 9.70372 32.7029C7.79243 34.7138 6.70538 37.4272 6.66832 40.2638H3.55944ZM17.0433 24.1258C11.4834 24.1258 6.96734 19.3858 6.96734 13.5172C6.96734 7.64866 11.4834 2.90861 17.0433 2.90861C22.6032 2.90861 27.1192 7.64866 27.1192 13.5172C27.1192 19.3858 22.6032 24.1258 17.0433 24.1258ZM17.0433 20.8396C20.8998 20.8396 24.0106 17.5556 24.0106 13.5172C24.0106 9.47889 20.8998 6.19481 17.0433 6.19481C13.1868 6.19481 10.076 9.47889 10.076 13.5172C10.076 17.5556 13.1868 20.8396 17.0433 20.8396ZM29.9569 30.5273L31.2368 27.532C33.5445 28.6588 35.5044 30.4506 36.8877 32.7025C38.2731 34.9577 39.0221 37.5796 39.0488 40.2638H35.9399C35.9135 38.2158 35.3393 36.2155 34.281 34.4926C33.2226 32.7697 31.7239 31.3954 29.9569 30.5273Z" fill="black" stroke="black" stroke-width="0.3"/>
</svg>
