<svg width="52" height="52" viewBox="0 0 52 52" fill="none" xmlns="http://www.w3.org/2000/svg">
<path d="M35.6408 24.2068V24.2069C35.6416 26.6324 34.7801 28.9694 33.2276 30.7589C31.7125 32.5053 29.6464 33.607 27.4192 33.8629V30.5476C28.6667 30.3313 29.8199 29.714 30.7199 28.7802C31.6504 27.8148 32.2614 26.562 32.4643 25.2062C32.6673 23.8504 32.4519 22.4616 31.8492 21.2433C31.2649 20.0624 30.3461 19.1013 29.2197 18.4927L30.0882 15.2936C31.7089 16.034 33.0957 17.2499 34.081 18.7991C35.0983 20.3986 35.6415 22.2808 35.6408 24.2068ZM3.55944 48.2638C3.59667 44.5509 5.01474 41 7.51089 38.3738C10.0404 35.7125 13.4695 34.219 17.0433 34.219C20.6171 34.219 24.0462 35.7125 26.5757 38.3738C29.0718 41 30.4899 44.5509 30.5271 48.2638H27.4182C27.3812 45.4272 26.2941 42.7138 24.3828 40.7029C22.4376 38.6564 19.7977 37.5052 17.0433 37.5052C14.2889 37.5052 11.6489 38.6564 9.70373 40.7029C7.79243 42.7138 6.70538 45.4272 6.66832 48.2638H3.55944ZM17.0433 32.1258C11.4834 32.1258 6.96734 27.3858 6.96734 21.5172C6.96734 15.6487 11.4834 10.9086 17.0433 10.9086C22.6032 10.9086 27.1192 15.6487 27.1192 21.5172C27.1192 27.3858 22.6032 32.1258 17.0433 32.1258ZM17.0433 28.8396C20.8998 28.8396 24.0106 25.5556 24.0106 21.5172C24.0106 17.4789 20.8998 14.1948 17.0433 14.1948C13.1868 14.1948 10.076 17.4789 10.076 21.5172C10.076 25.5556 13.1868 28.8396 17.0433 28.8396ZM39.0488 48.2638H35.9399C35.9135 46.2158 35.3393 44.2155 34.2809 42.4926C33.2226 40.7697 31.7239 39.3954 29.9569 38.5273L31.2368 35.532C33.5445 36.6588 35.5044 38.4506 36.8877 40.7025C38.2731 42.9577 39.0221 45.5796 39.0488 48.2638Z" fill="black" stroke="black" stroke-width="0.3"/>
<path d="M52 7.63023C52 11.8443 48.753 15.2605 44.7476 15.2605C40.7421 15.2605 37.4951 11.8443 37.4951 7.63023C37.4951 3.41617 40.7421 0 44.7476 0C48.753 0 52 3.41617 52 7.63023Z" fill="#E3996D"/>
</svg>
