<svg width="47" height="47" viewBox="0 0 47 47" fill="none" xmlns="http://www.w3.org/2000/svg">
<path d="M20.6495 27.3752L20.6494 27.277L20.5594 27.2377C17.9172 26.0859 16.15 23.4611 16.15 20.5C16.15 16.4407 19.4407 13.15 23.5 13.15C27.5587 13.15 30.8491 16.4398 30.85 20.4983L30.8423 20.8374C30.7139 23.6586 28.9827 26.1291 26.4418 27.2383L26.3518 27.2776L26.3518 27.3757L26.3499 30.5244L26.3499 30.6494L26.4727 30.672L26.7045 30.7147C26.7049 30.7148 26.7053 30.7149 26.7056 30.7149C30.8716 31.5422 34.5314 33.9717 36.9321 37.4285C33.4518 40.7855 28.7172 42.85 23.5 42.85C18.2821 42.85 13.5468 40.7849 10.0668 37.4265C12.4714 33.9676 16.1352 31.5382 20.3032 30.7121C20.3035 30.712 20.3038 30.712 20.3041 30.7119L20.5273 30.6705L20.65 30.6477L20.6499 30.523L20.6495 27.3752ZM42.85 23.5C42.85 27.7507 41.4795 31.681 39.1555 34.8723C36.9565 31.9768 33.9954 29.7415 30.6099 28.4272L30.7629 28.2911L30.7629 28.2911L30.7655 28.2887C32.8696 26.3241 34.15 23.534 34.15 20.5C34.15 14.6182 29.3818 9.85 23.5 9.85C17.6182 9.85 12.85 14.6182 12.85 20.5L12.85 20.5029L12.8578 20.9101L12.8579 20.913C12.9711 23.8592 14.2906 26.5463 16.3883 28.4291L16.0967 28.5433L16.0949 28.5441C12.8331 29.8721 9.97951 32.0607 7.84473 34.8749C5.52087 31.6821 4.15 27.7514 4.15 23.5C4.15 12.8133 12.8133 4.15 23.5 4.15C34.1867 4.15 42.85 12.8133 42.85 23.5ZM46.15 23.5C46.15 10.9908 36.0093 0.85 23.5 0.85C10.9908 0.85 0.85 10.9908 0.85 23.5C0.85 36.0093 10.9908 46.15 23.5 46.15C36.0093 46.15 46.15 36.0093 46.15 23.5Z" fill="black" stroke="black" stroke-width="0.3"/>
</svg>
