<svg width="45" height="45" viewBox="0 0 45 45" fill="none" xmlns="http://www.w3.org/2000/svg">
<path d="M39.6916 24.705C39.7841 23.985 39.8535 23.265 39.8535 22.5C39.8535 21.735 39.7841 21.015 39.6916 20.295L44.5723 16.5825C45.0118 16.245 45.1274 15.6375 44.8498 15.1425L40.2236 7.3575C40.0154 6.9975 39.6222 6.795 39.2058 6.795C39.067 6.795 38.9283 6.8175 38.8126 6.8625L33.0529 9.1125C31.8501 8.2125 30.5548 7.47 29.1438 6.9075L28.2648 0.945C28.1954 0.405 27.7096 0 27.1313 0H17.8789C17.3006 0 16.8148 0.405 16.7454 0.945L15.8665 6.9075C14.4555 7.47 13.1601 8.235 11.9573 9.1125L6.19761 6.8625C6.05883 6.8175 5.92004 6.795 5.78125 6.795C5.38802 6.795 4.99479 6.9975 4.78661 7.3575L0.160372 15.1425C-0.140333 15.6375 -0.00154588 16.245 0.437947 16.5825L5.31863 20.295C5.2261 21.015 5.15671 21.7575 5.15671 22.5C5.15671 23.2425 5.2261 23.985 5.31863 24.705L0.437947 28.4175C-0.00154588 28.755 -0.117202 29.3625 0.160372 29.8575L4.78661 37.6425C4.99479 38.0025 5.38802 38.205 5.80439 38.205C5.94317 38.205 6.08196 38.1825 6.19761 38.1375L11.9573 35.8875C13.1601 36.7875 14.4555 37.53 15.8665 38.0925L16.7454 44.055C16.8148 44.595 17.3006 45 17.8789 45H27.1313C27.7096 45 28.1954 44.595 28.2648 44.055L29.1438 38.0925C30.5548 37.53 31.8501 36.765 33.0529 35.8875L38.8126 38.1375C38.9514 38.1825 39.0902 38.205 39.229 38.205C39.6222 38.205 40.0154 38.0025 40.2236 37.6425L44.8498 29.8575C45.1274 29.3625 45.0118 28.755 44.5723 28.4175L39.6916 24.705ZM35.1116 20.8575C35.2041 21.555 35.2273 22.0275 35.2273 22.5C35.2273 22.9725 35.181 23.4675 35.1116 24.1425L34.7878 26.685L36.8465 28.26L39.3446 30.15L37.7254 32.8725L34.7878 31.725L32.3821 30.78L30.3003 32.31C29.3057 33.03 28.3573 33.57 27.4089 33.9525L24.957 34.92L24.5869 37.4625L24.1243 40.5H20.8859L20.4464 37.4625L20.0763 34.92L17.6244 33.9525C16.6298 33.5475 15.7045 33.03 14.7793 32.355L12.6743 30.78L10.2224 31.7475L7.28478 32.895L5.6656 30.1725L8.16377 28.2825L10.2224 26.7075L9.89861 24.165C9.82921 23.4675 9.78295 22.95 9.78295 22.5C9.78295 22.05 9.82921 21.5325 9.89861 20.8575L10.2224 18.315L8.16377 16.74L5.6656 14.85L7.28478 12.1275L10.2224 13.275L12.6281 14.22L14.7099 12.69C15.7045 11.97 16.6529 11.43 17.6013 11.0475L20.0532 10.08L20.4233 7.5375L20.8859 4.5H24.1012L24.5407 7.5375L24.9108 10.08L27.3627 11.0475C28.3573 11.4525 29.2826 11.97 30.2078 12.645L32.3127 14.22L34.7646 13.2525L37.7023 12.105L39.3215 14.8275L36.8465 16.74L34.7878 18.315L35.1116 20.8575ZM22.5051 13.5C17.3931 13.5 13.2526 17.5275 13.2526 22.5C13.2526 27.4725 17.3931 31.5 22.5051 31.5C27.6171 31.5 31.7576 27.4725 31.7576 22.5C31.7576 17.5275 27.6171 13.5 22.5051 13.5ZM22.5051 27C19.9607 27 17.8789 24.975 17.8789 22.5C17.8789 20.025 19.9607 18 22.5051 18C25.0495 18 27.1313 20.025 27.1313 22.5C27.1313 24.975 25.0495 27 22.5051 27Z" fill="black"/>
</svg>
