<svg width="375" height="75" viewBox="0 0 375 75" fill="none" xmlns="http://www.w3.org/2000/svg">
<rect width="375" height="75" fill="#272828"/>
<path d="M267.377 54H268.137V50.505H269.517C270.057 50.505 270.524 50.4033 270.917 50.2C271.314 49.9967 271.619 49.7133 271.832 49.35C272.046 48.9867 272.152 48.5633 272.152 48.08C272.152 47.3533 271.916 46.7833 271.442 46.37C270.969 45.9567 270.327 45.75 269.517 45.75H267.377V54ZM268.137 49.865V46.37H269.337C269.954 46.37 270.447 46.5217 270.817 46.825C271.187 47.125 271.372 47.55 271.372 48.1C271.372 48.6433 271.187 49.0733 270.817 49.39C270.447 49.7067 269.954 49.865 269.337 49.865H268.137ZM275.549 54H276.279V50.62C276.279 50.4033 276.344 50.2 276.474 50.01C276.607 49.8167 276.779 49.66 276.989 49.54C277.202 49.42 277.426 49.36 277.659 49.36C277.916 49.36 278.152 49.4117 278.369 49.515L278.669 48.9C278.419 48.78 278.132 48.72 277.809 48.72C277.119 48.72 276.609 49.025 276.279 49.635V48.88H275.549V54ZM284.258 54.16C284.791 54.16 285.271 54.045 285.698 53.815C286.128 53.585 286.468 53.265 286.718 52.855C286.968 52.445 287.093 51.9733 287.093 51.44C287.093 50.9033 286.968 50.4317 286.718 50.025C286.468 49.615 286.128 49.295 285.698 49.065C285.271 48.835 284.791 48.72 284.258 48.72C283.725 48.72 283.243 48.835 282.813 49.065C282.386 49.295 282.048 49.615 281.798 50.025C281.548 50.4317 281.423 50.9033 281.423 51.44C281.423 51.9733 281.548 52.445 281.798 52.855C282.048 53.265 282.386 53.585 282.813 53.815C283.243 54.045 283.725 54.16 284.258 54.16ZM284.258 53.51C283.858 53.51 283.501 53.4217 283.188 53.245C282.875 53.0683 282.628 52.825 282.448 52.515C282.268 52.2017 282.178 51.8433 282.178 51.44C282.178 51.0367 282.268 50.68 282.448 50.37C282.628 50.0567 282.875 49.8117 283.188 49.635C283.501 49.4583 283.858 49.37 284.258 49.37C284.658 49.37 285.015 49.4583 285.328 49.635C285.641 49.8117 285.888 50.0567 286.068 50.37C286.248 50.68 286.338 51.0367 286.338 51.44C286.338 51.8433 286.248 52.2017 286.068 52.515C285.888 52.825 285.641 53.0683 285.328 53.245C285.015 53.4217 284.658 53.51 284.258 53.51ZM290.784 54H291.514V49.43H293.129V54H293.859V48.88H291.514V47.025C291.514 46.6183 291.586 46.3267 291.729 46.15C291.876 45.9733 292.092 45.885 292.379 45.885C292.549 45.885 292.719 45.9317 292.889 46.025C293.062 46.115 293.189 46.23 293.269 46.37L293.609 45.93C293.476 45.7333 293.282 45.5717 293.029 45.445C292.779 45.315 292.506 45.25 292.209 45.25C291.779 45.25 291.434 45.3967 291.174 45.69C290.914 45.9833 290.784 46.435 290.784 47.045V48.88H290.274V49.43H290.784V54ZM297.632 54H298.362V45.4H297.632V54ZM304.763 54.16C305.273 54.16 305.736 54.05 306.153 53.83C306.573 53.61 306.905 53.3017 307.148 52.905L306.608 52.615C306.181 53.2417 305.576 53.555 304.793 53.555C304.386 53.555 304.025 53.4683 303.708 53.295C303.391 53.1183 303.143 52.8767 302.963 52.57C302.786 52.26 302.698 51.9067 302.698 51.51H307.308C307.315 51.4733 307.318 51.4417 307.318 51.415C307.321 51.3883 307.323 51.3567 307.323 51.32C307.31 50.81 307.186 50.36 306.953 49.97C306.723 49.5767 306.41 49.27 306.013 49.05C305.62 48.83 305.17 48.72 304.663 48.72C304.293 48.72 303.945 48.79 303.618 48.93C303.295 49.07 303.01 49.265 302.763 49.515C302.516 49.765 302.323 50.0567 302.183 50.39C302.043 50.72 301.973 51.0767 301.973 51.46C301.973 51.97 302.093 52.43 302.333 52.84C302.576 53.2467 302.908 53.5683 303.328 53.805C303.748 54.0417 304.226 54.16 304.763 54.16ZM302.738 50.96C302.781 50.6367 302.891 50.3533 303.068 50.11C303.248 49.8633 303.476 49.6717 303.753 49.535C304.03 49.395 304.336 49.325 304.673 49.325C305.003 49.325 305.305 49.395 305.578 49.535C305.851 49.675 306.078 49.8683 306.258 50.115C306.438 50.3617 306.55 50.6433 306.593 50.96H302.738Z" fill="white"/>
<path d="M287 19C292.523 19 297 23.4772 297 29C297 34.5228 292.523 39 287 39C281.477 39 277 34.5228 277 29C277 23.4772 281.477 19 287 19ZM287 24.3333C285.159 24.3333 283.667 25.8257 283.667 27.6667C283.667 29.0096 284.468 30.1999 285.666 30.7223L285.667 32.1213L285.567 32.1399C283.678 32.5141 282.021 33.6219 280.943 35.1981C282.505 36.7255 284.643 37.6667 287 37.6667C289.357 37.6667 291.494 36.7257 293.057 35.199C291.981 33.6238 290.325 32.5158 288.437 32.1412L288.333 32.122L288.334 30.7226C289.487 30.2194 290.272 29.0987 290.33 27.8189L290.333 27.6667C290.333 25.8257 288.841 24.3333 287 24.3333ZM287 20.3333C282.214 20.3333 278.333 24.2135 278.333 29C278.333 30.9364 278.968 32.7244 280.042 34.1673C280.989 32.8916 282.268 31.9004 283.734 31.3035L283.966 31.2127L283.951 31.2C282.993 30.3726 282.388 29.1696 282.337 27.8477L282.333 27.6667C282.333 25.0893 284.423 23 287 23C289.577 23 291.667 25.0893 291.667 27.6667C291.667 28.9961 291.106 30.2187 290.184 31.0796L290.033 31.2133L290.063 31.2242C291.614 31.8104 292.968 32.8335 293.959 34.1661C295.032 32.7239 295.667 30.9361 295.667 29C295.667 24.2135 291.786 20.3333 287 20.3333Z" fill="white"/>
<path d="M185 19C185.552 19 186 19.4477 186 20V21H190V20C190 19.4477 190.448 19 191 19C191.552 19 192 19.4477 192 20V21H195C196.105 21 197 21.8954 197 23V36C197 37.1046 196.105 38 195 38H181C179.895 38 179 37.1046 179 36V23C179 21.8954 179.895 21 181 21H184V20C184 19.4477 184.448 19 185 19ZM184 23H181V26H195V23H192V24C192 24.5523 191.552 25 191 25C190.448 25 190 24.5523 190 24V23H186V24C186 24.5523 185.552 25 185 25C184.448 25 184 24.5523 184 24V23ZM195 28H181V36H195V28Z" fill="white"/>
<path d="M160.95 53.16C161.474 53.16 161.96 53.0833 162.41 52.93C162.864 52.7767 163.262 52.57 163.605 52.31L163.245 51.675C162.952 51.9117 162.612 52.0933 162.225 52.22C161.839 52.3467 161.429 52.41 160.995 52.41C160.472 52.41 159.992 52.32 159.555 52.14C159.122 51.96 158.745 51.71 158.425 51.39C158.105 51.0667 157.857 50.6917 157.68 50.265C157.507 49.835 157.42 49.3733 157.42 48.88C157.42 48.3833 157.507 47.9217 157.68 47.495C157.857 47.0683 158.105 46.695 158.425 46.375C158.745 46.0517 159.122 45.8 159.555 45.62C159.992 45.44 160.472 45.35 160.995 45.35C161.429 45.35 161.839 45.4133 162.225 45.54C162.612 45.6667 162.952 45.8483 163.245 46.085L163.605 45.45C163.259 45.1867 162.859 44.98 162.405 44.83C161.952 44.6767 161.467 44.6 160.95 44.6C160.33 44.6 159.755 44.7083 159.225 44.925C158.699 45.1417 158.237 45.445 157.84 45.835C157.447 46.2217 157.14 46.675 156.92 47.195C156.7 47.715 156.59 48.2767 156.59 48.88C156.59 49.4833 156.7 50.045 156.92 50.565C157.14 51.085 157.447 51.54 157.84 51.93C158.234 52.3167 158.695 52.6183 159.225 52.835C159.755 53.0517 160.33 53.16 160.95 53.16ZM169.153 53.16C169.606 53.16 170.018 53.05 170.388 52.83C170.758 52.61 171.053 52.3067 171.273 51.92V53H172.003V47.88H171.273V48.945C171.079 48.5617 170.793 48.2617 170.413 48.045C170.036 47.8283 169.616 47.72 169.153 47.72C168.666 47.72 168.229 47.8383 167.843 48.075C167.459 48.3083 167.156 48.63 166.933 49.04C166.713 49.45 166.603 49.915 166.603 50.435C166.603 50.9617 166.714 51.43 166.938 51.84C167.164 52.25 167.469 52.5733 167.853 52.81C168.236 53.0433 168.669 53.16 169.153 53.16ZM169.333 52.525C168.953 52.525 168.613 52.435 168.313 52.255C168.016 52.075 167.783 51.8283 167.613 51.515C167.443 51.2017 167.358 50.8433 167.358 50.44C167.358 50.0333 167.443 49.6733 167.613 49.36C167.783 49.0467 168.016 48.8017 168.313 48.625C168.609 48.445 168.949 48.355 169.333 48.355C169.716 48.355 170.056 48.445 170.353 48.625C170.649 48.8017 170.881 49.0467 171.048 49.36C171.218 49.6733 171.303 50.0333 171.303 50.44C171.303 50.8433 171.218 51.2033 171.048 51.52C170.878 51.8333 170.644 52.08 170.348 52.26C170.054 52.4367 169.716 52.525 169.333 52.525ZM176.005 53H176.735V44.4H176.005V53ZM183.136 53.16C183.646 53.16 184.109 53.05 184.526 52.83C184.946 52.61 185.278 52.3017 185.521 51.905L184.981 51.615C184.554 52.2417 183.949 52.555 183.166 52.555C182.759 52.555 182.398 52.4683 182.081 52.295C181.764 52.1183 181.516 51.8767 181.336 51.57C181.159 51.26 181.071 50.9067 181.071 50.51H185.681C185.688 50.4733 185.691 50.4417 185.691 50.415C185.694 50.3883 185.696 50.3567 185.696 50.32C185.683 49.81 185.559 49.36 185.326 48.97C185.096 48.5767 184.783 48.27 184.386 48.05C183.993 47.83 183.543 47.72 183.036 47.72C182.666 47.72 182.318 47.79 181.991 47.93C181.668 48.07 181.383 48.265 181.136 48.515C180.889 48.765 180.696 49.0567 180.556 49.39C180.416 49.72 180.346 50.0767 180.346 50.46C180.346 50.97 180.466 51.43 180.706 51.84C180.949 52.2467 181.281 52.5683 181.701 52.805C182.121 53.0417 182.599 53.16 183.136 53.16ZM181.111 49.96C181.154 49.6367 181.264 49.3533 181.441 49.11C181.621 48.8633 181.849 48.6717 182.126 48.535C182.403 48.395 182.709 48.325 183.046 48.325C183.376 48.325 183.678 48.395 183.951 48.535C184.224 48.675 184.451 48.8683 184.631 49.115C184.811 49.3617 184.923 49.6433 184.966 49.96H181.111ZM189.246 53H189.976V49.665C189.976 49.425 190.034 49.2033 190.151 49C190.271 48.7933 190.443 48.6283 190.666 48.505C190.889 48.3783 191.158 48.315 191.471 48.315C191.918 48.315 192.264 48.455 192.511 48.735C192.761 49.015 192.886 49.4183 192.886 49.945V53H193.616V49.805C193.616 49.145 193.444 48.6333 193.101 48.27C192.761 47.9033 192.294 47.72 191.701 47.72C191.278 47.72 190.918 47.8033 190.621 47.97C190.328 48.1367 190.113 48.34 189.976 48.58V47.88H189.246V53ZM199.707 53.16C200.16 53.16 200.572 53.05 200.942 52.83C201.315 52.61 201.61 52.3067 201.827 51.92V53H202.557V44.395H201.827V48.945C201.617 48.5617 201.327 48.2617 200.957 48.045C200.587 47.8283 200.174 47.72 199.717 47.72C199.227 47.72 198.789 47.8383 198.402 48.075C198.019 48.3083 197.715 48.63 197.492 49.04C197.269 49.45 197.157 49.9167 197.157 50.44C197.157 50.9667 197.269 51.435 197.492 51.845C197.719 52.255 198.024 52.5767 198.407 52.81C198.794 53.0433 199.227 53.16 199.707 53.16ZM199.882 52.525C199.499 52.525 199.159 52.435 198.862 52.255C198.565 52.075 198.332 51.8283 198.162 51.515C197.995 51.2017 197.912 50.845 197.912 50.445C197.912 50.0383 197.997 49.6783 198.167 49.365C198.337 49.0483 198.57 48.8017 198.867 48.625C199.164 48.445 199.504 48.355 199.887 48.355C200.27 48.355 200.609 48.445 200.902 48.625C201.199 48.8017 201.432 49.0483 201.602 49.365C201.772 49.6783 201.857 50.0383 201.857 50.445C201.857 50.8483 201.772 51.2067 201.602 51.52C201.432 51.8333 201.199 52.08 200.902 52.26C200.605 52.4367 200.265 52.525 199.882 52.525ZM208.744 53.16C209.198 53.16 209.609 53.05 209.979 52.83C210.349 52.61 210.644 52.3067 210.864 51.92V53H211.594V47.88H210.864V48.945C210.671 48.5617 210.384 48.2617 210.004 48.045C209.628 47.8283 209.208 47.72 208.744 47.72C208.258 47.72 207.821 47.8383 207.434 48.075C207.051 48.3083 206.748 48.63 206.524 49.04C206.304 49.45 206.194 49.915 206.194 50.435C206.194 50.9617 206.306 51.43 206.529 51.84C206.756 52.25 207.061 52.5733 207.444 52.81C207.828 53.0433 208.261 53.16 208.744 53.16ZM208.924 52.525C208.544 52.525 208.204 52.435 207.904 52.255C207.608 52.075 207.374 51.8283 207.204 51.515C207.034 51.2017 206.949 50.8433 206.949 50.44C206.949 50.0333 207.034 49.6733 207.204 49.36C207.374 49.0467 207.608 48.8017 207.904 48.625C208.201 48.445 208.541 48.355 208.924 48.355C209.308 48.355 209.648 48.445 209.944 48.625C210.241 48.8017 210.473 49.0467 210.639 49.36C210.809 49.6733 210.894 50.0333 210.894 50.44C210.894 50.8433 210.809 51.2033 210.639 51.52C210.469 51.8333 210.236 52.08 209.939 52.26C209.646 52.4367 209.308 52.525 208.924 52.525ZM215.597 53H216.327V49.62C216.327 49.4033 216.392 49.2 216.522 49.01C216.655 48.8167 216.827 48.66 217.037 48.54C217.25 48.42 217.474 48.36 217.707 48.36C217.964 48.36 218.2 48.4117 218.417 48.515L218.717 47.9C218.467 47.78 218.18 47.72 217.857 47.72C217.167 47.72 216.657 48.025 216.327 48.635V47.88H215.597V53Z" fill="white"/>
<path d="M81.1617 55H81.9217L82.8367 48.165L85.1917 54.495H85.7367L88.0917 48.165L89.0067 55H89.7667L88.6967 46.75H87.8917L85.4617 53.205L83.0367 46.75H82.2317L81.1617 55ZM95.7483 55.16C96.2016 55.16 96.6133 55.05 96.9833 54.83C97.3533 54.61 97.6483 54.3067 97.8683 53.92V55H98.5983V49.88H97.8683V50.945C97.6749 50.5617 97.3883 50.2617 97.0083 50.045C96.6316 49.8283 96.2116 49.72 95.7483 49.72C95.2616 49.72 94.8249 49.8383 94.4383 50.075C94.0549 50.3083 93.7516 50.63 93.5283 51.04C93.3083 51.45 93.1983 51.915 93.1983 52.435C93.1983 52.9617 93.3099 53.43 93.5333 53.84C93.7599 54.25 94.0649 54.5733 94.4483 54.81C94.8316 55.0433 95.2649 55.16 95.7483 55.16ZM95.9283 54.525C95.5483 54.525 95.2083 54.435 94.9083 54.255C94.6116 54.075 94.3783 53.8283 94.2083 53.515C94.0383 53.2017 93.9533 52.8433 93.9533 52.44C93.9533 52.0333 94.0383 51.6733 94.2083 51.36C94.3783 51.0467 94.6116 50.8017 94.9083 50.625C95.2049 50.445 95.5449 50.355 95.9283 50.355C96.3116 50.355 96.6516 50.445 96.9483 50.625C97.2449 50.8017 97.4766 51.0467 97.6433 51.36C97.8133 51.6733 97.8983 52.0333 97.8983 52.44C97.8983 52.8433 97.8133 53.2033 97.6433 53.52C97.4733 53.8333 97.2399 54.08 96.9433 54.26C96.6499 54.4367 96.3116 54.525 95.9283 54.525ZM102.601 57.6H103.331V53.92C103.547 54.3067 103.841 54.61 104.211 54.83C104.584 55.05 104.996 55.16 105.446 55.16C105.936 55.16 106.372 55.0417 106.756 54.805C107.142 54.5683 107.446 54.245 107.666 53.835C107.889 53.425 108.001 52.96 108.001 52.44C108.001 51.9167 107.889 51.4517 107.666 51.045C107.442 50.635 107.137 50.3117 106.751 50.075C106.367 49.8383 105.929 49.72 105.436 49.72C104.982 49.72 104.569 49.8283 104.196 50.045C103.826 50.2583 103.537 50.5567 103.331 50.94V49.88H102.601V57.6ZM105.276 54.525C104.892 54.525 104.552 54.4367 104.256 54.26C103.959 54.08 103.726 53.8333 103.556 53.52C103.386 53.2033 103.301 52.8433 103.301 52.44C103.301 52.0333 103.386 51.6733 103.556 51.36C103.726 51.0467 103.959 50.8017 104.256 50.625C104.552 50.445 104.892 50.355 105.276 50.355C105.659 50.355 105.997 50.445 106.291 50.625C106.587 50.8017 106.821 51.0483 106.991 51.365C107.161 51.6783 107.246 52.0383 107.246 52.445C107.246 52.8483 107.161 53.2067 106.991 53.52C106.821 53.8333 106.587 54.08 106.291 54.26C105.997 54.4367 105.659 54.525 105.276 54.525Z" fill="white"/>
<path d="M93.5 19.25C91.1131 19.25 88.8239 20.1982 87.136 21.886C85.4482 23.5739 84.5 25.8631 84.5 28.25C84.5 34.325 92.4313 41.1875 92.7688 41.48C92.9725 41.6543 93.2319 41.7501 93.5 41.7501C93.7681 41.7501 94.0275 41.6543 94.2312 41.48C94.625 41.1875 102.5 34.325 102.5 28.25C102.5 25.8631 101.552 23.5739 99.864 21.886C98.1761 20.1982 95.8869 19.25 93.5 19.25ZM93.5 39.1062C91.1037 36.8562 86.75 32.0075 86.75 28.25C86.75 26.4598 87.4612 24.7429 88.727 23.477C89.9929 22.2112 91.7098 21.5 93.5 21.5C95.2902 21.5 97.0071 22.2112 98.273 23.477C99.5388 24.7429 100.25 26.4598 100.25 28.25C100.25 32.0075 95.8962 36.8675 93.5 39.1062ZM93.5 23.75C92.61 23.75 91.74 24.0139 90.9999 24.5084C90.2599 25.0029 89.6831 25.7057 89.3425 26.5279C89.0019 27.3502 88.9128 28.255 89.0865 29.1279C89.2601 30.0008 89.6887 30.8026 90.318 31.432C90.9474 32.0613 91.7492 32.4899 92.6221 32.6635C93.495 32.8372 94.3998 32.7481 95.2221 32.4075C96.0443 32.0669 96.7471 31.4901 97.2416 30.7501C97.7361 30.01 98 29.14 98 28.25C98 27.0565 97.5259 25.9119 96.682 25.068C95.8381 24.2241 94.6935 23.75 93.5 23.75ZM93.5 30.5C93.055 30.5 92.62 30.368 92.25 30.1208C91.88 29.8736 91.5916 29.5222 91.4213 29.111C91.251 28.6999 91.2064 28.2475 91.2932 27.811C91.38 27.3746 91.5943 26.9737 91.909 26.659C92.2237 26.3443 92.6246 26.13 93.061 26.0432C93.4975 25.9564 93.9499 26.001 94.361 26.1713C94.7722 26.3416 95.1236 26.63 95.3708 27C95.618 27.37 95.75 27.805 95.75 28.25C95.75 28.8467 95.5129 29.419 95.091 29.841C94.669 30.2629 94.0967 30.5 93.5 30.5Z" fill="white"/>
</svg>
