<svg width="461" height="668" viewBox="0 0 461 668" fill="none" xmlns="http://www.w3.org/2000/svg">
<path d="M419.978 270.141L399.481 270.182C392.493 270.134 386.782 265.886 386.656 260.762L386.644 258.992C386.517 253.869 392.08 249.733 398.974 249.688L419.471 249.647C426.459 249.694 432.17 253.943 432.297 259.066L432.308 260.836C432.435 265.96 426.873 270.189 419.978 270.141Z" fill="#FCB58A"/>
<path d="M64.6448 271.256L44.1482 271.297C37.1603 271.249 31.4493 267.001 31.3226 261.878L31.311 260.107C31.1843 254.984 36.7471 250.848 43.6412 250.803L64.1378 250.762C71.1257 250.809 76.8369 255.058 76.9636 260.181L76.9752 261.951C77.1019 267.075 71.5395 271.304 64.6448 271.256Z" fill="#FCB58A"/>
<path d="M177.688 574.8C177.011 585.24 176.24 595.68 175.47 606.119C174.957 613.11 183.192 618.646 189.897 618.23C198 617.804 202.431 611.533 202.851 604.449C203.528 594.01 204.298 583.57 205.068 573.131C205.581 566.14 197.346 560.603 190.641 561.02C182.539 561.539 178.294 567.809 177.688 574.8Z" fill="#FCB58A"/>
<path d="M277.766 577.406C279.511 587.736 281.162 598.067 282.907 608.397C284.07 615.284 293.317 618.764 299.733 616.859C307.543 614.478 310.292 607.473 309.129 600.493C307.384 590.163 305.733 579.832 303.988 569.502C302.825 562.615 293.578 559.135 287.162 561.04C279.352 563.421 276.603 570.519 277.766 577.406Z" fill="#FCB58A"/>
<path d="M64.3834 274.052C85.2284 284.537 106.417 290.547 129.984 289.927C152.061 289.317 173.45 283.307 185.804 263.382C193.916 250.192 173.062 238.217 164.949 251.406C156.652 264.877 139.889 265.918 125.541 265.919C107.839 265.942 92.0626 261.107 76.3586 253.198C62.6179 246.3 50.5495 267.155 64.3834 274.052Z" fill="#FCB58A"/>
<path d="M384.637 251.273C369.038 259.387 353.418 264.334 335.625 264.637C320.534 264.829 306.828 263.242 298.259 249.509C290.068 236.426 269.372 248.673 277.563 261.756C282.93 270.292 290.246 277.791 299.313 282.297C309.501 287.354 320.223 288.495 331.497 288.608C355.07 288.919 376.085 282.633 396.884 271.876C410.626 264.798 398.286 244.102 384.637 251.273Z" fill="#FCB58A"/>
<path d="M297.938 188.892C297.892 188.683 297.835 188.501 297.769 188.296C296.662 184.85 285.772 150.869 282.051 136.044C275.837 111.954 259.346 97.6211 236.148 97.773C212.671 97.9267 196.185 112.848 189.82 136.834C183.647 160.492 175.521 185.185 174.827 187.285C174.791 187.393 174.761 187.484 174.731 187.593C173.829 190.814 175.435 194.248 178.558 195.51C186.031 198.442 201.717 203.557 236.744 202.955C268.044 202.378 284.133 197.893 292.232 196.909C296.216 196.429 298.768 192.61 297.938 188.892Z" fill="url(#paint0_linear_38_701)"/>
<path d="M249.991 177.154L223.253 177.329L223.551 222.793C223.576 226.613 226.67 229.667 230.49 229.642L243.44 229.557C247.259 229.532 250.313 226.438 250.288 222.618L249.991 177.154V177.154Z" fill="#FCB58A"/>
<path d="M235.659 94.2359C244.883 94.1755 252.287 86.6736 252.226 77.4504C252.166 68.2272 244.664 60.8229 235.441 60.8833C226.218 60.9437 218.813 68.4456 218.874 77.6688C218.934 86.892 226.529 94.2957 235.659 94.2359Z" fill="#7A6CF2"/>
<path d="M197.016 182.905C192.638 182.934 192.449 168.308 192.438 166.724C192.428 165.14 192.425 150.513 196.804 150.484C201.183 150.455 201.371 164.988 201.382 166.665C201.3 168.343 201.302 182.877 197.016 182.905ZM196.82 152.999C196.082 154.029 194.808 158.696 194.861 166.708C194.912 174.627 196.154 179.277 197 180.389C197.738 179.36 199.012 174.693 198.96 166.681C198.907 158.669 197.573 154.112 196.82 152.999Z" fill="white"/>
<path d="M275.46 182.391C271.081 182.42 270.892 167.794 270.882 166.21C270.871 164.626 270.869 149.999 275.247 149.97C279.626 149.942 279.814 164.475 279.825 166.152C279.836 167.829 279.745 182.363 275.46 182.391ZM275.264 152.486C274.525 153.515 273.251 158.182 273.304 166.194C273.356 174.113 274.597 178.763 275.443 179.876C276.182 178.846 277.455 174.18 277.403 166.167C277.351 158.155 276.11 153.598 275.264 152.486Z" fill="white"/>
<path d="M236.734 187.21C261.143 187.05 280.764 167.17 280.604 142.761C280.444 118.352 260.565 98.7312 236.156 98.891C211.747 99.0508 192.125 118.931 192.285 143.34C192.445 167.748 212.325 187.37 236.734 187.21Z" fill="#FCB58A"/>
<path d="M191.281 146.514C191.379 147.259 191.384 147.911 191.482 148.655C191.482 148.749 191.483 148.842 191.483 148.935C191.578 149.652 191.672 150.37 191.851 151.171C191.864 151.231 191.871 151.293 191.872 151.355V151.355V151.355C191.936 151.839 192.874 151.864 193.029 151.401C196.693 140.389 206.961 132.436 219.232 132.356C220.909 132.345 222.493 132.428 223.986 132.697C225.199 132.969 226.317 133.055 227.621 133.046C235.77 132.993 242.497 126.783 243.442 118.835C243.452 118.751 243.552 118.678 243.552 118.594V118.594C243.464 119.433 243.376 120.272 243.382 121.111C243.443 130.52 251.133 138.11 260.542 138.048V138.048C260.604 138.048 260.667 138.053 260.727 138.066C267.836 139.48 273.852 143.83 277.486 149.801C278.435 151.36 281.065 151.182 281.3 149.372V149.372C281.299 149.279 281.299 149.279 281.298 149.092C281.386 148.253 281.473 147.414 281.56 146.482C281.559 146.295 281.651 146.015 281.649 145.829C281.736 144.804 281.729 143.872 281.723 142.847C281.717 142.009 281.712 141.17 281.614 140.426V140.426C281.611 139.925 281.464 139.433 281.435 138.933C281.415 138.598 281.413 138.271 281.412 138.005V138.005C281.408 137.504 281.269 137.012 281.223 136.513C281.206 136.325 281.19 136.136 281.168 135.948C281.14 135.705 281.058 135.431 281.033 135.187V135.187C281.007 134.931 280.997 134.712 280.951 134.458C280.873 134.027 280.781 133.596 280.635 133.165V133.165C280.473 132.689 280.502 132.169 280.363 131.685C280.3 131.466 280.228 131.246 280.155 131.026C280.092 130.84 280.014 130.658 279.965 130.467V130.467C279.916 130.277 279.838 130.095 279.777 129.908C279.649 129.519 279.522 129.101 279.395 128.71C279.333 128.52 279.224 128.318 279.209 128.119V128.119C279.2 128 279.187 127.899 279.15 127.785C278.978 127.241 278.746 126.704 278.51 126.227C278.468 126.142 278.391 126.059 278.365 125.967V125.967C278.336 125.865 278.331 125.769 278.293 125.67C278.027 124.977 277.756 124.289 277.405 123.683C273.438 115.417 267.057 108.471 259.108 103.958C256.624 102.599 254.049 101.331 251.299 100.42C251.21 100.391 251.117 100.376 251.033 100.335V100.335C250.94 100.289 250.835 100.267 250.738 100.232C250.108 100.004 249.419 99.7815 248.724 99.616C248.551 99.5749 248.369 99.4777 248.192 99.4671V99.4671C248.112 99.4623 248.045 99.4549 247.967 99.4352C246.477 99.0578 244.925 98.7463 243.42 98.5C242.924 98.4188 242.431 98.2909 241.928 98.2942V98.2942C241.182 98.2059 240.53 98.2102 239.784 98.1219C239.505 98.1237 239.225 98.0324 239.038 98.0337C238.106 97.9466 237.174 97.9527 236.243 97.9588C211.275 98.1223 191.191 118.471 191.354 143.439C191.358 144.079 191.363 144.718 191.408 145.357C191.436 145.743 191.279 146.127 191.281 146.514V146.514Z" fill="url(#paint1_linear_38_701)"/>
<path d="M279.967 216.182C268.65 209.548 255.778 207.303 250.183 206.501C248.461 213.872 244.761 217.996 236.47 218.05C228.085 218.105 225.17 213.932 223.536 206.396C221.86 206.5 216.65 207.559 215.44 207.846C200.181 210.927 194.058 214.881 186.456 220.614C174.774 229.448 163.342 247.784 160.947 251.992C160.578 252.553 160.582 253.205 160.958 253.669C162.369 255.802 166.224 261.181 171.651 264.686C179.323 269.666 188.379 272.402 188.379 272.402C188.379 272.402 191.968 265.671 193.069 263.148C194.445 259.785 198.191 248.487 198.191 248.487C198.191 248.487 194.793 256.056 194.565 263.883C194.426 271.058 196.901 279.148 196.745 283.807C196.257 294.618 193.15 303.955 192.06 308.248C191.788 309.274 192.447 310.295 193.473 310.474C199.35 311.74 216.797 315.539 234.592 315.422C257.603 315.272 273.425 312.653 279.009 311.778C280.033 311.585 280.678 310.556 280.392 309.533C279.436 305.905 277.811 299.581 276.135 285.523C274.852 274.538 276.142 272.387 275.998 264.655C275.961 258.972 273.557 247.528 273.557 247.528L275.936 269.313C275.936 269.313 284.043 269.633 295.563 264.527C299.557 262.73 304.558 258.132 306.687 256.069C307.243 255.506 307.423 254.573 307.046 253.83C304.025 247.794 291.003 222.724 279.967 216.182Z" fill="#3B455B"/>
<path d="M236.734 187.21C232.076 187.241 227.599 186.525 223.398 185.248L223.452 193.539C227.653 194.816 232.219 194.879 236.967 194.383C243.205 193.783 245.899 192.554 250.079 190.663L250.043 185.073C245.859 186.405 241.392 187.18 236.734 187.21Z" fill="#E3996D"/>
<path d="M199.537 311.832C199.537 311.832 221.361 315.323 236.64 315.223C252.757 315.117 272.772 312.657 272.772 312.657C272.772 312.657 274.618 324.104 275.379 326.615C276.141 329.126 262.199 334.155 237.414 333.851C204.897 333.505 197.134 328.897 197.125 327.593C196.933 326.663 199.537 311.832 199.537 311.832Z" fill="#FCB58A"/>
<path d="M283.348 334.203C303.734 374.131 313.401 399.223 319.156 452.943C324.017 498.098 318.636 558.505 317.93 592.982C317.937 594.007 317.665 595.126 317.111 595.969C315.451 598.588 305.031 600.799 302.145 601.098C287.618 602.218 274.002 600.164 272.664 595.049C265.013 564.726 258.934 532.809 254.534 501.161C250.915 474.912 246.718 445.684 244.247 424.086C244.049 422.317 241.44 422.241 241.266 424.105C240.917 427.741 240.583 447.868 240.063 453.834C238.683 470.799 235.998 487.494 233.406 504.281C229.201 530.954 219.2 568.659 211.54 594.051C210.992 595.732 209.238 598.166 207.283 598.458C203.84 599.039 195.459 599.746 191.079 599.496C184.554 598.979 170.94 597.205 170.173 593.949C160.029 552.929 159.231 473.835 172.947 391.478C176.266 371.891 183.948 349.947 191.129 336.763C191.129 336.763 214.45 341.175 235.877 341.035C261.589 340.68 283.348 334.203 283.348 334.203Z" fill="#3B455B"/>
<path d="M196.939 327.688C196.939 327.688 194.427 328.263 192.861 330.975C191.388 333.593 191.036 336.764 191.036 336.764C191.036 336.764 207.931 341.684 239.892 342.313C270.827 342.856 283.349 334.296 283.349 334.296C283.349 334.296 282.208 330.856 279.589 329.289C276.971 327.816 275.194 326.803 275.194 326.803C275.194 326.803 265.561 335.437 236.108 333.58C206.653 331.444 196.939 327.688 196.939 327.688Z" fill="url(#paint2_linear_38_701)"/>
<path d="M61.4474 138.7L51.3906 139.511L56.2626 200.597L66.3195 199.785L61.4474 138.7Z" fill="#DADAED"/>
<path d="M55.3552 147.404L51.91 147.706L52.0082 148.451L55.4533 148.149L55.3552 147.404Z" fill="#989BD7"/>
<path d="M55.9587 154.201L52.5135 154.503L52.6115 155.248L56.0566 154.946L55.9587 154.201Z" fill="#989BD7"/>
<path d="M56.5627 161.092L53.1176 161.394L53.2157 162.138L56.6609 161.836L56.5627 161.092Z" fill="#989BD7"/>
<path d="M57.0735 167.889L53.6283 168.192L53.7264 168.936L57.1716 168.634L57.0735 167.889Z" fill="#989BD7"/>
<path d="M57.5842 174.781L54.139 175.083L54.2372 175.827L57.6823 175.525L57.5842 174.781Z" fill="#989BD7"/>
<path d="M58.0945 181.579L54.6493 181.88L54.7474 182.625L58.1926 182.323L58.0945 181.579Z" fill="#989BD7"/>
<path d="M58.698 188.376L55.2528 188.678L55.3507 189.422L58.7961 189.12L58.698 188.376Z" fill="#989BD7"/>
<path d="M51.2436 159.729L44.8227 160.889L53.6164 209.092L60.0375 207.932L51.2436 159.729Z" fill="#FFADB2"/>
<path d="M51.2433 159.729L44.8225 160.889L45.7867 151.659L47.0893 151.371L51.2433 159.729Z" fill="#EBDBCD"/>
<path d="M46.1876 155.942L47.1156 155.377L47.8615 155.465L48.8831 154.993L47.1836 151.557L45.8812 151.845L45.4392 155.481L46.1876 155.942Z" fill="#FF7A82"/>
<path d="M66.4072 198.946C65.288 198.767 64.536 197.747 64.715 196.628L69.5349 164.361C69.6262 164.081 69.6244 163.801 69.7163 163.614L72.5514 155.49C72.918 154.556 73.9391 153.99 74.872 154.171L75.3384 154.261C76.3644 154.44 77.0225 155.368 77.0292 156.392L76.4332 164.968C76.435 165.247 76.3438 165.527 76.3457 165.807L68.9134 197.532C68.5469 198.466 67.527 199.218 66.4072 198.946Z" fill="#2B31BA"/>
<path d="M104.282 220.779L62.4521 221.053L62.5436 235.027L104.374 234.754L104.282 220.779Z" fill="#F8D7BC"/>
<path d="M106.046 219.743L106.053 220.767L62.3591 221.053L62.4506 235.028L106.144 234.742L106.151 235.767L16.3414 236.355L16.2358 220.237L106.046 219.649L106.046 219.743Z" fill="url(#paint3_linear_38_701)"/>
<path d="M49.5719 260.174L111.339 259.77L111.192 237.224L49.4243 237.629C46.3499 237.649 43.9442 240.18 43.9637 243.161L44.0387 254.621C44.0595 257.788 46.4975 260.194 49.5719 260.174Z" fill="#F8ECE2"/>
<path d="M12.8952 236.47L113.978 235.809C114.35 235.806 114.725 236.176 114.728 236.549C114.73 236.922 114.36 237.297 113.987 237.299L101.597 237.38L55.2011 237.684C48.9591 237.725 43.9614 242.789 44.0023 249.031C44.0431 255.273 49.1068 260.271 55.3487 260.23L112.644 259.855L114.135 259.845C114.508 259.842 114.883 260.213 114.885 260.585C114.888 260.958 114.517 261.333 114.145 261.335L12.9691 261.998C6.72712 262.039 1.66349 257.041 1.62262 250.799L1.60432 248.004C1.6554 241.575 6.65324 236.511 12.8952 236.47Z" fill="url(#paint4_linear_38_701)"/>
<path d="M111.309 240.857L52.709 241.241L52.7139 241.986L111.314 241.603L111.309 240.857Z" fill="#EBD0BE"/>
<path d="M111.37 250.174L48.4844 250.585L48.4893 251.331L111.375 250.919L111.37 250.174Z" fill="#EBD0BE"/>
<path d="M111.402 255.018L56.2485 255.379L56.2534 256.124L111.406 255.763L111.402 255.018Z" fill="#EBD0BE"/>
<path d="M111.341 245.795L50.3188 246.194L50.3237 246.94L111.346 246.54L111.341 245.795Z" fill="#EBD0BE"/>
<path d="M63.1874 219.464L24.7108 219.716L24.6577 211.611L63.1343 211.359C64.2523 211.352 65.0961 212.185 65.1034 213.303L65.1302 217.402C65.1376 218.52 64.3053 219.457 63.1874 219.464Z" fill="#F8E7D8"/>
<path d="M87.0738 210.643L23.0706 211.062C22.9774 211.063 22.7916 211.157 22.7928 211.344C22.7941 211.53 22.8879 211.623 23.0742 211.621L60.9917 211.373C63.2276 211.358 65.01 213.21 65.024 215.353C65.0387 217.589 63.1869 219.371 61.0442 219.385L23.1267 219.633C23.0335 219.634 22.8477 219.728 22.849 219.915C22.8496 220.008 22.944 220.194 23.1303 220.192L87.1336 219.773C89.3695 219.759 91.1275 217.884 91.1135 215.741L91.1055 214.53C91.0915 212.387 89.3098 210.629 87.0738 210.643Z" fill="url(#paint5_linear_38_701)"/>
<path d="M46.8852 177.087L75.0207 176.902C75.766 176.898 76.3291 177.546 76.2408 178.292L72.354 210.74L49.8085 210.887L45.6834 178.492C45.5853 177.747 46.1399 177.092 46.8852 177.087Z" fill="url(#paint6_linear_38_701)"/>
<path d="M75.4285 153.887L74.9621 153.797C73.9361 153.618 72.9151 154.183 72.5485 155.117L69.6214 163.428C69.5289 163.522 69.5296 163.615 69.5308 163.802C70.4673 164.541 71.6827 165.185 72.9882 165.363C74.2006 165.541 75.411 165.44 76.434 165.154C76.4334 165.061 76.526 164.967 76.5248 164.781L77.1196 156.019C77.206 154.994 76.4552 154.16 75.4285 153.887Z" fill="#D7D7E6"/>
<path d="M75.4405 141.403C75.7163 140.842 76.4615 140.837 76.7447 141.394C77.2166 142.323 77.783 143.437 78.2537 144.18C79.0081 145.572 79.4947 148.737 79.0393 150.323C78.5857 152.19 77.2935 154.061 76.9251 154.716C76.8326 154.81 76.7399 154.904 76.5542 154.998C76.1821 155.094 75.4382 155.285 74.4122 155.105C73.0123 154.742 72.9136 153.904 72.9136 153.904C72.9136 153.904 72.1488 150.927 72.2298 149.064C72.3107 147.2 73.3202 144.864 73.7836 144.488C74.0601 144.021 74.8888 142.525 75.4405 141.403Z" fill="#C7645D"/>
<path d="M187.33 610.327C196.554 610.36 202.497 607.433 202.497 607.433C202.497 607.433 206.276 615.327 207.049 619.515C207.821 623.609 210.056 637.663 206.812 640.293C203.384 643.203 204.031 642.454 199.572 644.346C193.347 646.996 190.637 645.803 182.187 650.144C179.031 651.841 165.512 664.6 151.731 665.809C140.092 666.91 136.981 661.34 135.563 658.275C134.146 655.21 136.622 649.231 144.78 643.028C154.7 635.51 164.599 624.824 166.631 622.109C172.726 613.777 175.47 606.119 175.47 606.119C175.47 606.119 177.826 610.203 187.33 610.327Z" fill="#C7645D"/>
<path d="M297.456 610.538C288.233 610.692 282.717 607.746 282.717 607.746C282.717 607.746 278.657 613.829 277.217 621.571C276.499 625.675 275.09 638.169 278.368 640.849C281.834 643.715 281.177 642.974 285.661 644.808C291.92 647.376 294.614 646.147 303.12 650.377C306.299 652.033 319.984 664.707 333.779 665.642C342.168 666.239 348.469 660.981 349.846 657.897C351.223 654.813 351.275 648.478 340.889 641.651C330.503 634.825 318.226 623.911 316.623 620.941C314.171 616.391 309.259 606.175 309.259 606.175C309.259 606.175 306.957 610.29 297.456 610.538Z" fill="#C7645D"/>
<path d="M354.483 227.712C356.779 222.666 363.273 218.431 368.214 218.772C373.154 219.112 371.571 219.309 373.154 219.112C374.737 219.008 377.148 217.315 380.416 218.319C384.056 219.413 391.909 223.461 392.061 232.497C392.205 240.229 386.673 249.116 376.439 251.233C366.204 253.35 359.285 249.575 356.182 245.217C352.608 240.116 352.278 232.478 354.483 227.712Z" fill="#FF5856"/>
<path d="M370.491 225.092C370.491 225.092 369.669 213.451 374.295 208.483C379.477 202.953 386.338 197.876 385.893 201.14C385.805 201.886 386.997 213.152 383.857 217.365C379.055 223.918 370.491 225.092 370.491 225.092Z" fill="#4C7378"/>
<path d="M369.183 224.635C369.183 224.635 368.219 219.61 367.362 216.821C365.461 211.057 364.325 208.269 364.325 208.269L369.441 207.118C369.441 207.118 371.349 213.906 371.74 216.606C372.422 221.26 372.07 224.336 372.07 224.336C372.07 224.336 371.424 225.365 370.492 225.278C369.375 225.379 369.183 224.635 369.183 224.635Z" fill="#6B4D3A"/>
<path d="M367.032 209.09C368.428 208.801 369.541 208.049 369.35 207.398C369.253 206.746 367.946 206.382 366.55 206.671C365.155 206.959 364.042 207.712 364.232 208.363C364.33 209.014 365.636 209.285 367.032 209.09Z" fill="#8A634B"/>
<path d="M405.587 249.365L379.409 249.537L379.348 240.313L405.527 240.142C406.272 240.137 406.742 240.693 406.746 241.345L406.789 247.96C406.981 248.704 406.333 249.36 405.587 249.365Z" fill="#F8D0B3"/>
<path d="M452.658 238.343L400.766 238.683L377.941 238.832L377.196 238.837C376.823 238.839 376.453 239.214 376.455 239.587C376.458 239.96 376.833 240.33 377.205 240.327L379.348 240.313L404.129 240.151C405.62 240.141 406.653 241.346 406.662 242.65L406.688 246.749C406.698 248.24 405.494 249.366 404.19 249.374L398.507 249.412L377.359 249.55C376.986 249.552 376.616 249.928 376.618 250.3C376.621 250.673 376.996 251.043 377.369 251.041L377.928 251.037L400.846 250.887L452.552 250.548C454.042 250.539 455.059 249.321 455.051 248.017L455.005 241.122C455.181 239.444 454.055 238.334 452.658 238.343Z" fill="#FF7A82"/>
<path d="M418.276 237.916L376.073 238.192L376.015 229.342L418.218 229.065C419.429 229.057 420.461 230.075 420.469 231.286L420.497 235.665C420.506 236.969 419.58 237.907 418.276 237.916Z" fill="#F8E7D8"/>
<path d="M444.672 228.24L374.241 228.701C374.054 228.702 373.869 228.796 373.871 229.076C373.872 229.262 373.966 229.448 374.246 229.446L415.983 229.173C418.405 229.157 420.468 231.1 420.484 233.615C420.5 236.038 418.557 238.1 416.041 238.117L374.304 238.39C374.118 238.391 373.932 238.486 373.934 238.765C373.935 238.951 374.03 239.137 374.309 239.135L444.741 238.674C447.163 238.658 449.2 236.688 449.183 234.173L449.175 232.869C449.064 230.168 447.095 228.224 444.672 228.24Z" fill="#4E53BA"/>
<path d="M408.198 235.373L376.056 235.583L376.054 235.211L408.195 235C408.288 235 408.382 235.092 408.383 235.186C408.383 235.279 408.291 235.372 408.198 235.373Z" fill="#DEBCA7"/>
<path d="M415.538 232.437L376.037 232.695L376.035 232.323L415.536 232.064C415.629 232.064 415.723 232.156 415.723 232.249C415.724 232.342 415.725 232.436 415.538 232.437Z" fill="#DEBCA7"/>
<path d="M273.927 247.153C273.927 247.153 275.668 256.831 275.885 261.581C275.997 264.468 275.934 269.034 275.934 269.034C275.934 269.034 278.077 269.02 279.194 268.919C280.311 268.819 281.614 268.531 281.614 268.531C281.614 268.531 280.281 264.161 278.855 259.884C277.527 256.166 273.927 247.153 273.927 247.153Z" fill="#E0E0E0"/>
<path d="M198.462 247.181C198.462 247.181 196.177 253.997 195.087 258.29C194.363 261.555 194.662 264.442 194.481 265.281C194.211 266.681 192.838 270.509 192.198 272.284C192.015 272.844 191.458 273.127 190.898 273.038C189.965 272.858 188.565 272.494 187.539 272.221C185.858 271.673 184.644 271.215 184.924 271.307C184.924 271.307 188.523 266.066 191.196 261.576C193.406 257.649 198.462 247.181 198.462 247.181Z" fill="#E0E0E0"/>
<path d="M275.906 335.928C291.006 365.364 300.347 397.538 305.498 430.113C310.941 464.643 311.637 499.762 310.281 534.616C309.482 554.745 307.936 574.88 306.112 595.016C305.941 597.346 309.48 597.23 309.652 594.993C312.863 558.916 315.328 522.751 314.159 486.516C313.099 452.703 308.871 418.818 299.528 386.364C294.38 368.416 287.557 350.852 279.062 334.137C277.931 332.095 274.868 333.885 275.906 335.928Z" fill="white" fill-opacity="0.21"/>
<path d="M194.579 337.113C181.732 367.197 174.768 399.292 171.068 431.739C167.186 465.025 166.476 498.849 167.068 532.293C167.478 552.228 168.539 571.972 170.998 591.801C171.292 594.035 174.833 594.105 174.538 591.778C170.306 557.24 169.891 522.398 170.875 487.641C171.781 455.212 174.363 422.773 181.329 390.957C185.219 373.23 190.6 355.586 197.665 338.863C198.583 336.807 195.497 335.057 194.579 337.113Z" fill="white" fill-opacity="0.45"/>
<path d="M114.134 259.752L112.643 259.761L107.706 259.794C107.337 260.355 106.967 260.823 106.504 261.199L114.05 261.15C114.423 261.147 114.793 260.772 114.79 260.4C114.789 260.12 114.507 259.749 114.134 259.752Z" fill="#2B31BA"/>
<path d="M113.986 237.206C114.359 237.204 114.729 236.828 114.727 236.456C114.724 236.083 114.349 235.713 113.977 235.715L108.853 235.749L108.862 237.146L113.986 237.206Z" fill="#2B31BA"/>
<path d="M104.844 263.726C101.858 263.093 98.7783 262.275 95.7904 261.269L31.228 261.692L31.2292 261.878C31.239 263.369 31.8072 264.763 32.7474 266.061L101.129 265.613C102.527 265.604 103.734 264.944 104.844 263.726Z" fill="#E3996D"/>
<path d="M356.478 261.985C357.604 263.189 358.913 263.926 360.31 263.916L431.86 263.448C432.227 262.607 432.408 261.767 432.308 260.743L432.297 259.066L365.219 259.505C362.244 260.456 359.362 261.314 356.478 261.985Z" fill="#E3996D"/>
<path d="M236.64 315.223C221.361 315.323 199.537 311.832 199.537 311.832C199.537 311.832 199.176 313.511 198.818 315.843C208.714 318.853 222.047 320.349 236.67 319.695C250.454 319.045 262.922 316.541 272.309 313.033C272.401 312.939 272.495 312.938 272.68 312.844C272.68 312.751 272.68 312.751 272.68 312.751C272.68 312.751 252.665 315.211 236.64 315.223Z" fill="#F0A173"/>
<path d="M335.564 213.944C337.86 208.898 344.354 204.663 349.294 205.003C354.234 205.344 352.652 205.54 354.234 205.344C355.817 205.24 358.229 203.547 361.496 204.551C365.137 205.645 372.989 209.693 373.142 218.729C373.285 226.461 367.754 235.348 357.519 237.465C347.285 239.582 340.365 235.807 337.262 231.448C333.688 226.348 333.359 218.71 335.564 213.944Z" fill="url(#paint7_linear_38_701)"/>
<path d="M351.571 211.324C351.571 211.324 350.75 199.683 355.376 194.715C360.557 189.184 367.418 184.108 366.974 187.372C366.885 188.118 368.077 199.383 364.937 203.597C360.135 210.15 351.571 211.324 351.571 211.324Z" fill="url(#paint8_linear_38_701)"/>
<path d="M350.264 210.866C350.264 210.866 349.3 205.842 348.443 203.052C346.542 197.288 345.405 194.501 345.405 194.501L350.522 193.349C350.522 193.349 352.43 200.138 352.82 202.837C353.503 207.491 353.15 210.568 353.15 210.568C353.15 210.568 352.505 211.597 351.573 211.51C350.455 211.611 350.264 210.866 350.264 210.866Z" fill="#6B4D3A"/>
<path d="M447.475 245.075L327.947 245.857C326.922 245.864 326.078 245.031 326.071 244.006L326.04 239.255C326.033 238.23 326.866 237.386 327.891 237.379L447.327 236.597C448.351 236.591 449.195 237.424 449.202 238.448L449.233 243.2C449.333 244.224 448.407 245.069 447.475 245.075Z" fill="#C5C6E3"/>
<path d="M433.739 224.575L381.847 224.914L359.021 225.064L358.276 225.069C357.903 225.071 357.533 225.446 357.536 225.819C357.538 226.191 357.913 226.562 358.286 226.559L360.429 226.545L385.21 226.383C386.701 226.373 387.734 227.578 387.742 228.882L387.769 232.981C387.779 234.472 386.575 235.598 385.27 235.606L379.588 235.643L358.44 235.782C358.067 235.784 357.697 236.159 357.699 236.532C357.701 236.905 358.077 237.275 358.449 237.272L359.008 237.269L381.926 237.119L433.632 236.78C435.123 236.77 436.14 235.553 436.131 234.248L436.086 227.354C436.261 225.676 435.136 224.565 433.739 224.575Z" fill="#FF7A82"/>
<path d="M389.278 221.605L357.137 221.815L357.134 221.443L389.276 221.232C389.369 221.232 389.463 221.324 389.463 221.418C389.464 221.511 389.371 221.604 389.278 221.605Z" fill="#DEBCA7"/>
<defs>
<linearGradient id="paint0_linear_38_701" x1="41.0234" y1="152.219" x2="309.774" y2="165.839" gradientUnits="userSpaceOnUse">
<stop stop-color="#5C24FC"/>
<stop offset="1" stop-color="#9D7AFF"/>
</linearGradient>
<linearGradient id="paint1_linear_38_701" x1="191.154" y1="127.136" x2="320.613" y2="127.89" gradientUnits="userSpaceOnUse">
<stop stop-color="#5271C4"/>
<stop offset="0.48" stop-color="#B19FFF"/>
<stop offset="1" stop-color="#ECA1FE"/>
</linearGradient>
<linearGradient id="paint2_linear_38_701" x1="190.277" y1="334.668" x2="347.656" y2="338.336" gradientUnits="userSpaceOnUse">
<stop stop-color="#878C99"/>
<stop offset="1"/>
</linearGradient>
<linearGradient id="paint3_linear_38_701" x1="15.5619" y1="227.929" x2="168.67" y2="231.155" gradientUnits="userSpaceOnUse">
<stop stop-color="#F44771"/>
<stop offset="1" stop-color="#FD29B5"/>
</linearGradient>
<linearGradient id="paint4_linear_38_701" x1="-120.378" y1="250.244" x2="115.78" y2="299.652" gradientUnits="userSpaceOnUse">
<stop stop-color="#5C24FC"/>
<stop offset="1" stop-color="#9D7AFF"/>
</linearGradient>
<linearGradient id="paint5_linear_38_701" x1="22.8209" y1="215.629" x2="91.1098" y2="215.182" gradientUnits="userSpaceOnUse">
<stop stop-color="#FFE29F"/>
<stop offset="0.48" stop-color="#FFA99F"/>
<stop offset="1" stop-color="#FF719A"/>
</linearGradient>
<linearGradient id="paint6_linear_38_701" x1="12.8216" y1="194.401" x2="79.3902" y2="196.898" gradientUnits="userSpaceOnUse">
<stop stop-color="#5C24FC"/>
<stop offset="1" stop-color="#9D7AFF"/>
</linearGradient>
<linearGradient id="paint7_linear_38_701" x1="334.181" y1="221.293" x2="373.158" y2="221.038" gradientUnits="userSpaceOnUse">
<stop stop-color="#F77062"/>
<stop offset="1" stop-color="#FE5196"/>
</linearGradient>
<linearGradient id="paint8_linear_38_701" x1="347.423" y1="201.575" x2="377.228" y2="195.521" gradientUnits="userSpaceOnUse">
<stop stop-color="#16A085"/>
<stop offset="1" stop-color="#F4D03F"/>
</linearGradient>
</defs>
</svg>
