<?xml version="1.0" standalone="no"?>
<!DOCTYPE svg PUBLIC "-//W3C//DTD SVG 20010904//EN"
 "http://www.w3.org/TR/2001/REC-SVG-20010904/DTD/svg10.dtd">
<svg version="1.0" xmlns="http://www.w3.org/2000/svg"
 width="757.000000pt" height="757.000000pt" viewBox="0 0 757.000000 757.000000"
 preserveAspectRatio="xMidYMid meet">
<metadata>
Created by potrace 1.14, written by Peter Selinger 2001-2017
</metadata>
<g transform="translate(0.000000,757.000000) scale(0.100000,-0.100000)"
fill="#000000" stroke="none">
<path d="M2580 7245 c-1258 -364 -1190 -343 -1190 -356 0 -5 -300 -402 -666
-881 -366 -479 -668 -877 -670 -883 -3 -6 4 -491 16 -1077 11 -586 20 -1135
20 -1221 l0 -157 301 -632 c166 -348 307 -639 312 -646 37 -46 896 -703 1232
-941 220 -156 405 -288 411 -293 11 -8 1341 -148 1414 -148 19 0 541 140 1160
311 851 236 1130 317 1146 333 16 16 1173 1518 1306 1696 l26 35 58 842 57
842 -394 977 -394 976 -817 656 c-450 361 -818 661 -818 668 0 7 -18 15 -42
19 -24 3 -328 48 -677 100 -349 52 -650 95 -670 94 -20 0 -524 -142 -1121
-314z m1395 166 l250 -39 -385 0 c-212 0 -378 2 -370 6 36 14 226 70 240 71 8
0 128 -17 265 -38z m981 -164 c9 -9 -107 -797 -117 -797 -7 0 -1631 800 -1639
808 -3 2 390 2 872 0 482 -2 880 -7 884 -11z m-1992 -64 c-3 -10 -64 -323
-138 -695 -73 -373 -135 -680 -138 -684 -4 -3 -285 95 -626 218 -341 122 -620
223 -619 224 5 5 1521 954 1523 954 1 0 0 -8 -2 -17z m2854 -576 c398 -319
722 -581 720 -582 -3 -3 -1580 373 -1584 378 -1 1 24 178 57 392 32 215 59
394 59 398 0 5 6 5 13 1 6 -4 337 -269 735 -587z m-1816 128 c400 -198 725
-361 723 -363 -11 -11 -1910 -568 -1913 -561 -3 7 252 1322 264 1361 5 15 18
11 102 -30 53 -27 424 -210 824 -407z m-1976 9 c-356 -223 -649 -404 -651
-402 -5 5 106 451 115 461 7 7 1145 343 1174 346 5 1 -282 -182 -638 -405z
m-754 -334 l-46 -185 -268 -250 c-148 -137 -299 -277 -335 -310 l-67 -60 88
115 c49 63 220 287 380 497 160 210 292 380 293 380 1 -1 -19 -85 -45 -187z
m3331 -900 c-114 -421 -207 -766 -209 -768 -1 -2 -325 201 -720 451 -396 250
-739 466 -763 482 l-45 28 970 287 c533 158 970 287 971 286 1 -1 -91 -346
-204 -766z m1237 565 c388 -93 706 -169 708 -170 6 -5 -293 -1305 -300 -1302
-7 2 -1218 1654 -1218 1661 0 5 -68 21 810 -189z m-301 -698 c337 -461 611
-841 608 -843 -5 -6 -1636 162 -1642 168 -3 2 88 346 200 763 113 418 205 761
205 764 0 9 13 -8 629 -852z m-2941 317 c-17 -17 -1702 -1262 -1705 -1260 -2
2 423 1698 431 1722 3 7 245 -75 645 -219 518 -186 639 -233 629 -243z m-1613
-429 l-188 -744 -61 57 c-34 31 -173 160 -309 286 -136 126 -247 232 -246 235
1 10 984 919 988 915 2 -2 -81 -339 -184 -749z m6035 -273 c194 -480 351 -875
348 -877 -4 -4 -802 292 -1000 370 -10 4 -18 14 -18 21 0 15 296 1327 306
1353 2 8 6 12 8 10 2 -2 162 -397 356 -877z m-3317 50 c340 -215 617 -394 616
-399 -2 -4 -334 -261 -738 -571 l-736 -562 -2 72 c-2 40 -12 449 -23 908 -10
459 -22 901 -25 983 l-6 147 148 -94 c81 -51 426 -269 766 -484z m-998 -460
c14 -562 25 -1037 23 -1055 l-3 -32 -862 435 c-475 239 -863 437 -862 440 0 6
1673 1240 1676 1236 1 -1 14 -462 28 -1024z m-2158 19 c229 -212 253 -239 253
-286 0 -17 -560 -1313 -590 -1363 -6 -12 -10 18 -10 98 0 63 -7 441 -15 840
-8 399 -15 801 -15 894 l0 168 68 -63 c37 -35 176 -165 309 -288z m4828 -105
c564 -59 789 -86 787 -94 -3 -15 -1155 -1601 -1162 -1602 -5 0 -491 1756 -490
1773 0 13 60 7 865 -77z m-967 17 c40 -137 482 -1756 480 -1758 -7 -6 -1968
660 -1965 668 3 9 1458 1125 1468 1126 3 1 11 -16 17 -36z m2482 -344 c239
-89 436 -163 438 -164 1 -1 -127 -338 -285 -748 -159 -410 -291 -742 -294
-739 -7 7 -389 1816 -389 1839 0 9 13 8 48 -6 26 -10 243 -92 482 -182z m-431
-834 c110 -522 198 -951 196 -953 -3 -3 -1576 316 -1581 321 -1 1 262 365 585
809 437 600 588 802 593 790 5 -10 98 -444 207 -967z m-4665 505 c469 -237
861 -436 870 -443 15 -11 -64 -74 -626 -504 -521 -398 -644 -488 -650 -475 -4
9 -107 422 -228 917 -122 495 -224 908 -226 918 -3 9 -2 17 1 17 4 0 390 -194
859 -430z m-727 -592 c117 -474 211 -863 210 -864 -1 -1 -238 65 -527 146
-367 104 -525 152 -524 162 2 21 618 1427 623 1422 3 -3 101 -392 218 -866z
m6268 -137 c-24 -360 -46 -655 -48 -657 -4 -4 -451 -62 -455 -59 -2 1 120 321
270 710 155 400 274 697 276 683 1 -12 -18 -317 -43 -677z m-3473 -131 c540
-182 983 -332 985 -334 2 -2 -365 -278 -817 -614 -451 -336 -820 -609 -820
-606 0 2 -76 420 -170 928 -93 508 -170 931 -170 940 0 9 3 16 6 16 3 0 447
-149 986 -330z m-994 -308 c62 -339 139 -757 171 -929 l58 -312 -117 62 c-742
396 -1509 814 -1507 821 4 12 1259 974 1272 975 6 1 61 -277 123 -617z m2960
-239 c425 -87 771 -160 770 -164 -4 -9 -1409 -1139 -1417 -1139 -3 0 -35 305
-70 678 -35 372 -66 701 -69 730 -2 28 -1 52 4 52 5 0 357 -70 782 -157z
m-829 -629 c38 -395 67 -720 66 -722 -7 -8 -1734 274 -1732 283 1 6 360 276
797 602 591 440 796 587 798 574 2 -9 34 -341 71 -737z m-4125 576 c236 -66
431 -121 432 -123 4 -4 195 -1289 192 -1292 -3 -3 -1080 1520 -1087 1537 -2 6
5 8 15 4 11 -3 212 -60 448 -126z m-55 -652 c242 -344 441 -629 441 -632 0 -9
-461 356 -472 373 -27 46 -436 913 -425 901 8 -8 213 -297 456 -642z m6389
593 c-5 -13 -1012 -1320 -1015 -1317 -4 3 577 1249 588 1261 6 6 99 22 207 36
240 32 224 31 220 20z m-4198 -981 c0 -8 -1380 -413 -1387 -407 -3 3 -193
1244 -193 1262 0 2 356 -188 790 -423 435 -234 790 -428 790 -432z m3264 110
c-180 -386 -303 -640 -312 -640 -14 0 -702 217 -709 223 -4 5 1311 1065 1316
1061 2 -2 -131 -291 -295 -644z m-2875 -728 c137 -288 244 -522 238 -519 -7 2
-454 140 -994 307 -540 168 -980 307 -977 310 10 10 1469 436 1476 431 3 -3
119 -241 257 -529z m760 388 c448 -72 816 -131 817 -133 3 -3 -1153 -817
-1171 -823 -5 -2 -118 222 -249 498 -132 277 -250 525 -263 551 l-24 49 38 -6
c21 -4 404 -65 852 -136z m1350 -276 c201 -64 369 -119 373 -122 4 -4 -400
-120 -898 -258 -497 -138 -901 -248 -898 -245 8 8 1048 740 1053 740 2 1 168
-51 370 -115z m-2866 -440 c405 -125 735 -230 733 -232 -6 -5 -914 86 -956 96
-20 5 -142 85 -285 186 -261 186 -269 193 -245 184 9 -3 347 -108 753 -234z"/>
</g>
</svg>
