<svg id="Ebene_2" data-name="Ebene 2" xmlns="http://www.w3.org/2000/svg" xmlns:xlink="http://www.w3.org/1999/xlink" viewBox="0 0 632.17 740.95"><defs><style>.Grafikstil-2{stroke-width:2px;fill:url(#Unbenannter_Verlauf_2);stroke:url(#Unbenannter_Verlauf_3);}.Grafikstil{fill:url(#Unbenannter_Verlauf_4);}.cls-1,.cls-4,.cls-5,.cls-6,.cls-7,.cls-8,.cls-9{fill:none;}.cls-1,.cls-9{stroke:#1d1d1b;}.cls-1{stroke-miterlimit:10;}.cls-2,.cls-9{font-size:60px;font-family:Montserrat-Bold, Montserrat;font-weight:700;}.cls-2{fill:#1d1d1b;}.cls-3{letter-spacing:-0.05em;}.cls-4{letter-spacing:0em;}.cls-10,.cls-5{letter-spacing:-0.07em;}.cls-11,.cls-6{letter-spacing:-0.01em;}.cls-12,.cls-7{letter-spacing:-0.02em;}</style><linearGradient id="Unbenannter_Verlauf_2" x1="117.65" y1="511.81" x2="560.06" y2="509.62" gradientTransform="matrix(1, 0, 0, -1, 0, 799.04)" gradientUnits="userSpaceOnUse"><stop offset="0" stop-color="#d8d7e6"/><stop offset="1" stop-color="#878c99"/></linearGradient><linearGradient id="Unbenannter_Verlauf_3" x1="117.94" y1="511.81" x2="559.36" y2="509.62" gradientTransform="matrix(1, 0, 0, -1, 0, 799.04)" gradientUnits="userSpaceOnUse"><stop offset="1" stop-color="#e0e0e0"/><stop offset="1" stop-color="#d34994"/></linearGradient><linearGradient id="Unbenannter_Verlauf_4" x1="310.6" y1="575.04" x2="481.26" y2="575.04" gradientTransform="matrix(1, 0, 0, -1, 0, 799.04)" gradientUnits="userSpaceOnUse"><stop offset="0" stop-color="#ffe29f"/><stop offset="0.48" stop-color="#f5a7a0"/><stop offset="1" stop-color="#ed729a"/></linearGradient></defs><path class="Grafikstil-2" d="M249.45,156.9h0a131,131,0,0,1,131,131h0a131,131,0,0,1-131,131h0a131,131,0,0,1-131-131h0A131,131,0,0,1,249.45,156.9Z"/><path class="Grafikstil" d="M395.93,138.67h0A85.33,85.33,0,0,1,481.26,224h0a85.34,85.34,0,0,1-85.33,85.33h0A85.33,85.33,0,0,1,310.6,224h0A85.33,85.33,0,0,1,395.93,138.67Z"/><polyline class="cls-1" points="188.94 293.24 232.85 252.39 295.2 213.28 366.64 213.58 425.87 261.07 453.96 330.52 449.87 390.26 402.38 452.05 321.45 474.52 271.15 469.41 241.02 447.96 212.43 425.5 190.98 380.56 217.53 319.8 283.92 270.77 361.53 247.79 411.57 316.22 427.92 393.84 370.21 440.31 299.75 429.07 234.38 393.84 215.49 317.24 237.45 229.92 318.94 206.43"/><polyline class="cls-1" points="190.98 380.56 189.36 292.85 237.45 229.92 318.94 206.43 366.64 213.58 361.53 247.79 344.94 309.33 234.38 393.84 241.02 447.96 299.75 429.07 364.6 380.82 411.57 316.22 453.96 330.52 427.92 393.84 402.38 452.05 370.21 440.31 321.45 474.52 241.54 448.33"/><polyline class="cls-1" points="241.02 447.96 190.98 380.56 234.38 393.84 299.75 429.07 286.01 354.37 283.92 270.77 295.2 213.28 361.53 247.79 425.87 261.07 411.57 316.22 344.94 309.33 364.6 380.82 425.87 393.33 449.87 390.26"/><line class="cls-1" x1="321.45" y1="474.52" x2="299.74" y2="429.07"/><polyline class="cls-1" points="370.21 440.31 364.6 380.82 286.01 354.37 217.53 319.8 188.94 293.24"/><polyline class="cls-1" points="232.85 252.39 283.92 270.77 344.94 309.33"/><text class="cls-2" transform="translate(189.36 550.6) scale(1.02 1)"><tspan class="cls-3">A</tspan><tspan x="42.92" y="0">U</tspan><tspan class="cls-4" x="90.2" y="0"> </tspan><tspan class="cls-5" x="107.18" y="0">P</tspan><tspan class="cls-6" x="146.82" y="0">A</tspan><tspan class="cls-7" x="192.08" y="0">I</tspan><tspan class="cls-8" x="210.82" y="0">R</tspan></text><text class="cls-9" transform="translate(189.36 550.6) scale(1.02 1)"><tspan class="cls-3">A</tspan><tspan x="42.92" y="0">U </tspan><tspan class="cls-10" x="107.18" y="0">P</tspan><tspan class="cls-11" x="146.82" y="0">A</tspan><tspan class="cls-12" x="192.08" y="0">I</tspan><tspan x="210.82" y="0">R</tspan></text></svg>