<svg id="Ebene_2" data-name="Ebene 2" xmlns="http://www.w3.org/2000/svg" xmlns:xlink="http://www.w3.org/1999/xlink" viewBox="0 0 363.79 429.11"><defs><style>.Grafikstil-2{stroke-width:2px;fill:url(#Unbenannter_Verlauf_2);stroke:url(#Unbenannter_Verlauf_3);}.Grafikstil{fill:url(#Unbenannter_Verlauf_4);}.cls-1,.cls-4,.cls-5,.cls-6,.cls-7,.cls-8{fill:none;}.cls-1,.cls-5,.cls-6,.cls-7,.cls-8{stroke:#1d1d1b;}.cls-1,.cls-5,.cls-6,.cls-7{stroke-miterlimit:10;stroke-width:1.5px;}.cls-2,.cls-8{font-size:60px;font-family:Montserrat-Bold, Montserrat;font-weight:700;}.cls-2{fill:#1d1d1b;}.cls-3{letter-spacing:-0.05em;}.cls-4{letter-spacing:0em;}.cls-5,.cls-9{letter-spacing:-0.07em;}.cls-10,.cls-6{letter-spacing:-0.01em;}.cls-11,.cls-7{letter-spacing:-0.02em;}</style><linearGradient id="Unbenannter_Verlauf_2" x1="117.65" y1="511.81" x2="560.06" y2="509.62" gradientTransform="matrix(1, 0, 0, -1, 0, 799.04)" gradientUnits="userSpaceOnUse"><stop offset="0" stop-color="#d8d7e6"/><stop offset="1" stop-color="#878c99"/></linearGradient><linearGradient id="Unbenannter_Verlauf_3" x1="117.94" y1="511.81" x2="559.36" y2="509.62" gradientTransform="matrix(1, 0, 0, -1, 0, 799.04)" gradientUnits="userSpaceOnUse"><stop offset="1" stop-color="#e0e0e0"/><stop offset="1" stop-color="#d34994"/></linearGradient><linearGradient id="Unbenannter_Verlauf_4" x1="310.6" y1="575.04" x2="481.26" y2="575.04" gradientTransform="matrix(1, 0, 0, -1, 0, 799.04)" gradientUnits="userSpaceOnUse"><stop offset="0" stop-color="#ffe29f"/><stop offset="0.48" stop-color="#f5a7a0"/><stop offset="1" stop-color="#ed729a"/></linearGradient></defs><path class="Grafikstil-2" d="M249.45,156.9h0a131,131,0,0,1,131,131h0a131,131,0,0,1-131,131h0a131,131,0,0,1-131-131h0A131,131,0,0,1,249.45,156.9Z" transform="translate(-117.47 -138.67)"/><path class="Grafikstil" d="M395.93,138.67h0A85.33,85.33,0,0,1,481.26,224h0a85.34,85.34,0,0,1-85.33,85.33h0A85.33,85.33,0,0,1,310.6,224h0A85.33,85.33,0,0,1,395.93,138.67Z" transform="translate(-117.47 -138.67)"/><polyline class="cls-1" points="71.47 154.57 115.38 113.72 177.74 74.61 249.17 74.92 308.4 122.4 336.49 191.85 332.4 251.6 284.92 313.38 203.98 335.85 153.68 330.75 123.55 309.3 94.96 286.83 73.51 241.89 100.06 181.13 166.45 132.11 244.06 109.13 294.11 177.55 310.45 255.17 252.75 301.64 182.28 290.4 116.92 255.17 98.02 178.57 119.98 91.25 201.48 67.77"/><polyline class="cls-1" points="73.51 241.89 71.89 154.18 119.98 91.25 201.48 67.77 249.17 74.92 244.06 109.13 227.47 170.66 116.92 255.17 123.55 309.3 182.28 290.4 247.13 242.15 294.11 177.55 336.49 191.85 310.45 255.17 284.92 313.38 252.75 301.64 203.98 335.85 124.07 309.67"/><polyline class="cls-1" points="123.55 309.3 73.51 241.89 116.92 255.17 182.28 290.4 168.54 215.71 166.45 132.11 177.74 74.61 244.06 109.13 308.4 122.4 294.11 177.55 227.47 170.66 247.13 242.15 308.4 254.66 332.4 251.6"/><path class="cls-1" d="M321.45,474.52" transform="translate(-117.47 -138.67)"/><line class="cls-1" x1="203.98" y1="335.85" x2="182.28" y2="290.4"/><polyline class="cls-1" points="252.75 301.64 247.13 242.15 168.54 215.71 100.06 181.13 71.47 154.57"/><polyline class="cls-1" points="115.38 113.72 166.45 132.11 227.47 170.66"/><text class="cls-2" transform="translate(69.38 412.66) scale(1.02 1)"><tspan class="cls-3">A</tspan><tspan x="42.92" y="0">U</tspan><tspan class="cls-4" x="90.2" y="0"> </tspan><tspan class="cls-5" x="107.18" y="0">P</tspan><tspan class="cls-6" x="146.82" y="0">A</tspan><tspan class="cls-7" x="192.08" y="0">I</tspan><tspan class="cls-1" x="210.82" y="0">R</tspan></text><text class="cls-8" transform="translate(69.38 412.66) scale(1.02 1)"><tspan class="cls-3">A</tspan><tspan x="42.92" y="0">U </tspan><tspan class="cls-9" x="107.18" y="0">P</tspan><tspan class="cls-10" x="146.82" y="0">A</tspan><tspan class="cls-11" x="192.08" y="0">I</tspan><tspan x="210.82" y="0">R</tspan></text></svg>